<?xml version="1.0" encoding="UTF-8"?>
<svg xmlns="http://www.w3.org/2000/svg"
     xmlns:xlink="http://www.w3.org/1999/xlink"
     xmlns:gadfly="http://www.gadflyjl.org/ns"
     version="1.2"
     width="152.4mm" height="101.6mm" viewBox="0 0 152.4 101.6"
     stroke="none"
     fill="#000000"
     stroke-width="0.3"
     font-size="3.88"
>
<defs>
  <marker id="arrow" markerWidth="15" markerHeight="7" refX="5" refY="3.5" orient="auto" markerUnits="strokeWidth">
    <path d="M0,0 L15,3.5 L0,7 z" stroke="context-stroke" fill="context-stroke"/>
  </marker>
</defs>
<g class="plotroot xscalable yscalable" id="img-d1c541c0-1">
  <g font-size="3.88" font-family="'PT Sans','Helvetica Neue','Helvetica',sans-serif" fill="#564A55" stroke="#000000" stroke-opacity="0.000" id="img-d1c541c0-2">
    <g transform="translate(74.85,89.99)">
      <g class="primitive">
        <text text-anchor="middle" dy="0.6em">Time</text>
      </g>
    </g>
  </g>
  <g class="guide xlabels" font-size="2.82" font-family="'PT Sans Caption','Helvetica Neue','Helvetica',sans-serif" fill="#6C606B" id="img-d1c541c0-3">
    <g transform="translate(18.29,83.32)">
      <g class="primitive">
        <text text-anchor="middle" dy="0.6em">0</text>
      </g>
    </g>
    <g transform="translate(74.85,83.32)">
      <g class="primitive">
        <text text-anchor="middle" dy="0.6em">50</text>
      </g>
    </g>
    <g transform="translate(131.42,83.32)">
      <g class="primitive">
        <text text-anchor="middle" dy="0.6em">100</text>
      </g>
    </g>
  </g>
  <g class="guide colorkey" id="img-d1c541c0-4">
    <g fill="#4C404B" font-size="2.82" font-family="'PT Sans','Helvetica Neue','Helvetica',sans-serif" id="img-d1c541c0-5">
      <g transform="translate(137.23,32.78)" id="img-d1c541c0-6" class="color_f1">
        <g class="primitive">
          <text dy="0.35em">10</text>
        </g>
      </g>
      <g transform="translate(137.23,36.4)" id="img-d1c541c0-7" class="color_f2">
        <g class="primitive">
          <text dy="0.35em">20</text>
        </g>
      </g>
      <g transform="translate(137.23,40.03)" id="img-d1c541c0-8" class="color_f3">
        <g class="primitive">
          <text dy="0.35em">40</text>
        </g>
      </g>
      <g transform="translate(137.23,43.66)" id="img-d1c541c0-9" class="color_f4">
        <g class="primitive">
          <text dy="0.35em">80</text>
        </g>
      </g>
      <g transform="translate(137.23,47.28)" id="img-d1c541c0-10" class="color_f5">
        <g class="primitive">
          <text dy="0.35em">160</text>
        </g>
      </g>
      <g transform="translate(137.23,50.91)" id="img-d1c541c0-11" class="color_f6">
        <g class="primitive">
          <text dy="0.35em">320</text>
        </g>
      </g>
      <g transform="translate(137.23,54.54)" id="img-d1c541c0-12" class="color_f7">
        <g class="primitive">
          <text dy="0.35em">640</text>
        </g>
      </g>
      <g transform="translate(137.23,58.16)" id="img-d1c541c0-13" class="color_f8">
        <g class="primitive">
          <text dy="0.35em">1280</text>
        </g>
      </g>
    </g>
    <g fill-opacity="1" id="img-d1c541c0-14">
      <g transform="translate(135.33,32.78)" id="img-d1c541c0-15" fill="#00BFFF" stroke="#FFFFFF" class="color_f1">
        <path d="M-0.91,-0.91 L 0.91 -0.91 0.91 0.91 -0.91 0.91 z" class="primitive"/>
      </g>
      <g transform="translate(135.33,36.4)" id="img-d1c541c0-16" fill="#D4CA3A" stroke="#FFFFFF" class="color_f2">
        <path d="M-0.91,-0.91 L 0.91 -0.91 0.91 0.91 -0.91 0.91 z" class="primitive"/>
      </g>
      <g transform="translate(135.33,40.03)" id="img-d1c541c0-17" fill="#FF6DAE" stroke="#FFFFFF" class="color_f3">
        <path d="M-0.91,-0.91 L 0.91 -0.91 0.91 0.91 -0.91 0.91 z" class="primitive"/>
      </g>
      <g transform="translate(135.33,43.66)" id="img-d1c541c0-18" fill="#00B78D" stroke="#FFFFFF" class="color_f4">
        <path d="M-0.91,-0.91 L 0.91 -0.91 0.91 0.91 -0.91 0.91 z" class="primitive"/>
      </g>
      <g transform="translate(135.33,47.28)" id="img-d1c541c0-19" fill="#BEA9FF" stroke="#FFFFFF" class="color_f5">
        <path d="M-0.91,-0.91 L 0.91 -0.91 0.91 0.91 -0.91 0.91 z" class="primitive"/>
      </g>
      <g transform="translate(135.33,50.91)" id="img-d1c541c0-20" fill="#FF6765" stroke="#FFFFFF" class="color_f6">
        <path d="M-0.91,-0.91 L 0.91 -0.91 0.91 0.91 -0.91 0.91 z" class="primitive"/>
      </g>
      <g transform="translate(135.33,54.54)" id="img-d1c541c0-21" fill="#C6C6C6" stroke="#FFFFFF" class="color_f7">
        <path d="M-0.91,-0.91 L 0.91 -0.91 0.91 0.91 -0.91 0.91 z" class="primitive"/>
      </g>
      <g transform="translate(135.33,58.16)" id="img-d1c541c0-22" fill="#63DF75" stroke="#FFFFFF" class="color_f8">
        <path d="M-0.91,-0.91 L 0.91 -0.91 0.91 0.91 -0.91 0.91 z" class="primitive"/>
      </g>
    </g>
    <g fill="#362A35" font-size="3.88" font-family="'PT Sans','Helvetica Neue','Helvetica',sans-serif" stroke="#000000" stroke-opacity="0.000" id="img-d1c541c0-23">
      <g transform="translate(134.42,28.96)" id="img-d1c541c0-24">
        <g class="primitive">
          <text dy="-0em">Samples</text>
        </g>
      </g>
    </g>
  </g>
  <g clip-path="url(#img-d1c541c0-25)">
    <g id="img-d1c541c0-26">
      <g pointer-events="visible" fill="#000000" fill-opacity="0.000" stroke="#000000" stroke-opacity="0.000" class="guide background" id="img-d1c541c0-27">
        <g transform="translate(74.85,43.66)" id="img-d1c541c0-28">
          <path d="M-58.57,-38.66 L 58.57 -38.66 58.57 38.66 -58.57 38.66 z" class="primitive"/>
        </g>
      </g>
      <g class="guide ygridlines xfixed" stroke-dasharray="0.5,0.5" stroke-width="0.2" stroke="#D0D0E0" id="img-d1c541c0-29">
        <g transform="translate(74.85,80.31)" id="img-d1c541c0-30">
          <path fill="none" d="M-58.57,0 L 58.57 0" class="primitive"/>
        </g>
        <g transform="translate(74.85,61.99)" id="img-d1c541c0-31">
          <path fill="none" d="M-58.57,0 L 58.57 0" class="primitive"/>
        </g>
        <g transform="translate(74.85,43.66)" id="img-d1c541c0-32">
          <path fill="none" d="M-58.57,0 L 58.57 0" class="primitive"/>
        </g>
        <g transform="translate(74.85,25.33)" id="img-d1c541c0-33">
          <path fill="none" d="M-58.57,0 L 58.57 0" class="primitive"/>
        </g>
        <g transform="translate(74.85,7)" id="img-d1c541c0-34">
          <path fill="none" d="M-58.57,0 L 58.57 0" class="primitive"/>
        </g>
      </g>
      <g class="guide xgridlines yfixed" stroke-dasharray="0.5,0.5" stroke-width="0.2" stroke="#D0D0E0" id="img-d1c541c0-35">
        <g transform="translate(18.29,43.66)" id="img-d1c541c0-36">
          <path fill="none" d="M0,-38.66 L 0 38.66" class="primitive"/>
        </g>
        <g transform="translate(74.85,43.66)" id="img-d1c541c0-37">
          <path fill="none" d="M0,-38.66 L 0 38.66" class="primitive"/>
        </g>
        <g transform="translate(131.42,43.66)" id="img-d1c541c0-38">
          <path fill="none" d="M0,-38.66 L 0 38.66" class="primitive"/>
        </g>
      </g>
      <g class="plotpanel" id="img-d1c541c0-39">
        <metadata>
          <boundingbox value="16.28500000000001mm 5.0mm 117.13583333333331mm 77.315mm"/>
          <unitbox value="-1.7677865103157715 6.109118188638068 103.53557302063155 -4.2182363772761375"/>
        </metadata>
        <g stroke-width="0.3" fill="#000000" fill-opacity="0.000" class="geometry" id="img-d1c541c0-40">
          <g transform="translate(74.85,48.34)" id="img-d1c541c0-41" stroke="#00BFFF" class="color_f1" stroke-dasharray="none">
            <path fill="none" d="M-56.57,25.19 L -56.11 25.05 -55.66 24.86 -55.2 24.63 -54.75 24.47 -54.3 24.41 -53.84 24.41 -53.39 24.29 -52.93 23.94 -52.48 23.39 -52.02 22.82 -51.57 22.44 -51.12 22.3 -50.66 22.29 -50.21 22.23 -49.75 22.03 -49.3 21.72 -48.84 21.44 -48.39 21.26 -47.94 21.18 -47.48 21.13 -47.03 21.09 -46.57 21.04 -46.12 20.98 -45.66 20.89 -45.21 20.71 -44.75 20.42 -44.3 20.1 -43.85 19.86 -43.39 19.76 -42.94 19.78 -42.48 19.79 -42.03 19.68 -41.57 19.43 -41.12 19.13 -40.67 18.9 -40.21 18.81 -39.76 18.83 -39.3 18.89 -38.85 18.91 -38.39 18.86 -37.94 18.75 -37.48 18.61 -37.03 18.46 -36.58 18.32 -36.12 18.18 -35.67 18.06 -35.21 17.95 -34.76 17.85 -34.3 17.74 -33.85 17.62 -33.4 17.48 -32.94 17.32 -32.49 17.13 -32.03 16.92 -31.58 16.71 -31.12 16.53 -30.67 16.38 -30.21 16.25 -29.76 16.11 -29.31 15.94 -28.85 15.75 -28.4 15.61 -27.94 15.56 -27.49 15.57 -27.03 15.58 -26.58 15.49 -26.13 15.31 -25.67 15.1 -25.22 14.98 -24.76 14.96 -24.31 14.98 -23.85 14.91 -23.4 14.69 -22.95 14.36 -22.49 14.05 -22.04 13.82 -21.58 13.66 -21.13 13.48 -20.67 13.25 -20.22 13.01 -19.76 12.85 -19.31 12.77 -18.86 12.69 -18.4 12.5 -17.95 12.21 -17.49 11.92 -17.04 11.77 -16.58 11.74 -16.13 11.65 -15.68 11.29 -15.22 10.64 -14.77 9.9 -14.31 9.33 -13.86 9.04 -13.4 8.89 -12.95 8.64 -12.49 8.14 -12.04 7.49 -11.59 6.94 -11.13 6.61 -10.68 6.45 -10.22 6.27 -9.77 5.99 -9.31 5.67 -8.86 5.46 -8.41 5.42 -7.95 5.42 -7.5 5.24 -7.04 4.8 -6.59 4.22 -6.13 3.74 -5.68 3.48 -5.23 3.39 -4.77 3.3 -4.32 3.06 -3.86 2.71 -3.41 2.35 -2.95 2.1 -2.5 1.95 -2.04 1.85 -1.59 1.73 -1.14 1.63 -0.68 1.58 -0.23 1.57 0.23 1.52 0.68 1.35 1.14 1.07 1.59 0.76 2.04 0.55 2.5 0.47 2.95 0.46 3.41 0.39 3.86 0.19 4.32 -0.13 4.77 -0.48 5.23 -0.77 5.68 -0.95 6.13 -1.02 6.59 -1.04 7.04 -1.05 7.5 -1.12 7.95 -1.26 8.41 -1.46 8.86 -1.68 9.31 -1.88 9.77 -2.03 10.22 -2.13 10.68 -2.2 11.13 -2.27 11.59 -2.32 12.04 -2.37 12.49 -2.43 12.95 -2.59 13.4 -2.89 13.86 -3.31 14.31 -3.73 14.77 -4.02 15.22 -4.12 15.68 -4.15 16.13 -4.3 16.58 -4.7 17.04 -5.28 17.49 -5.83 17.95 -6.15 18.4 -6.24 18.86 -6.24 19.31 -6.35 19.76 -6.6 20.22 -6.87 20.67 -7.06 21.13 -7.18 21.58 -7.38 22.04 -7.74 22.49 -8.2 22.95 -8.58 23.4 -8.78 23.85 -8.93 24.31 -9.29 24.76 -10 25.22 -10.89 25.67 -11.63 26.13 -11.96 26.58 -11.98 27.03 -12.03 27.49 -12.36 27.94 -12.95 28.4 -13.51 28.85 -13.83 29.31 -13.97 29.76 -14.23 30.21 -14.8 30.67 -15.58 31.12 -16.27 31.58 -16.66 32.03 -16.89 32.49 -17.31 32.94 -18.16 33.4 -19.32 33.85 -20.39 34.3 -21.01 34.76 -21.22 35.21 -21.32 35.67 -21.64 36.12 -22.22 36.58 -22.83 37.03 -23.22 37.48 -23.33 37.94 -23.35 38.39 -23.49 38.85 -23.81 39.3 -24.19 39.76 -24.5 40.21 -24.73 40.67 -24.97 41.12 -25.29 41.57 -25.65 42.03 -25.92 42.48 -26.06 42.94 -26.11 43.39 -26.22 43.85 -26.45 44.3 -26.75 44.75 -26.98 45.21 -27.04 45.66 -26.97 46.12 -26.88 46.57 -26.92 47.03 -27.1 47.48 -27.36 47.94 -27.61 48.39 -27.78 48.84 -27.89 49.3 -27.96 49.75 -28.07 50.21 -28.26 50.66 -28.54 51.12 -28.89 51.57 -29.24 52.02 -29.5 52.48 -29.64 52.93 -29.72 53.39 -29.88 53.84 -30.22 54.3 -30.73 54.75 -31.27 55.2 -31.71 55.66 -31.99 56.11 -32.2 56.57 -32.43" class="primitive"/>
          </g>
          <g transform="translate(74.85,54.9)" id="img-d1c541c0-42" stroke="#D4CA3A" class="color_f2" stroke-dasharray="none">
            <path fill="none" d="M-56.57,9.47 L -56.11 9.33 -55.66 8.91 -55.2 8.68 -54.75 8.67 -54.3 8.55 -53.84 8.46 -53.39 8.52 -52.93 8.61 -52.48 8.53 -52.02 8.32 -51.57 8.22 -51.12 8.22 -50.66 8.16 -50.21 8.12 -49.75 8.14 -49.3 8.14 -48.84 8.1 -48.39 8.1 -47.94 8.1 -47.48 8.02 -47.03 7.97 -46.57 7.93 -46.12 7.72 -45.66 7.5 -45.21 7.48 -44.75 7.52 -44.3 7.52 -43.85 7.52 -43.39 7.52 -42.94 7.48 -42.48 7.37 -42.03 7.28 -41.57 7.25 -41.12 7.22 -40.67 7.2 -40.21 7.19 -39.76 7.15 -39.3 7.15 -38.85 7.18 -38.39 7.03 -37.94 6.62 -37.48 6.32 -37.03 6.28 -36.58 6.27 -36.12 6.19 -35.67 6.14 -35.21 6.14 -34.76 6.14 -34.3 6.11 -33.85 6.08 -33.4 6.08 -32.94 6.08 -32.49 6.08 -32.03 6.06 -31.58 6.05 -31.12 6.08 -30.67 6.06 -30.21 5.82 -29.76 5.56 -29.31 5.52 -28.85 5.41 -28.4 5.13 -27.94 5.02 -27.49 5.02 -27.03 4.99 -26.58 4.97 -26.13 4.97 -25.67 4.98 -25.22 4.95 -24.76 4.91 -24.31 4.92 -23.85 4.77 -23.4 4.45 -22.95 4.25 -22.49 4.26 -22.04 4.31 -21.58 4.3 -21.13 4.32 -20.67 4.28 -20.22 4.02 -19.76 3.81 -19.31 3.76 -18.86 3.64 -18.4 3.46 -17.95 3.42 -17.49 3.35 -17.04 3.16 -16.58 3.05 -16.13 3.06 -15.68 3.14 -15.22 3.18 -14.77 3.15 -14.31 3.12 -13.86 3.1 -13.4 3.03 -12.95 2.92 -12.49 2.82 -12.04 2.77 -11.59 2.76 -11.13 2.73 -10.68 2.65 -10.22 2.59 -9.77 2.57 -9.31 2.48 -8.86 2.29 -8.41 2.11 -7.95 2.05 -7.5 2.06 -7.04 2.05 -6.59 2.04 -6.13 2.04 -5.68 2 -5.23 1.85 -4.77 1.62 -4.32 1.52 -3.86 1.5 -3.41 1.29 -2.95 1.09 -2.5 1.04 -2.04 0.82 -1.59 0.49 -1.14 0.45 -0.68 0.58 -0.23 0.63 0.23 0.63 0.68 0.63 1.14 0.57 1.59 0.39 2.04 0.23 2.5 0.24 2.95 0.28 3.41 0.28 3.86 0.27 4.32 0.26 4.77 0.23 5.23 0.17 5.68 0.21 6.13 0.18 6.59 -0.21 7.04 -0.62 7.5 -0.7 7.95 -0.8 8.41 -1.05 8.86 -1.22 9.31 -1.28 9.77 -1.31 10.22 -1.31 10.68 -1.31 11.13 -1.32 11.59 -1.35 12.04 -1.39 12.49 -1.43 12.95 -1.44 13.4 -1.4 13.86 -1.46 14.31 -1.68 14.77 -1.84 15.22 -1.88 15.68 -2.12 16.13 -2.52 16.58 -2.64 17.04 -2.49 17.49 -2.4 17.95 -2.41 18.4 -2.39 18.86 -2.41 19.31 -2.45 19.76 -2.47 20.22 -2.53 20.67 -2.62 21.13 -2.64 21.58 -2.59 22.04 -2.58 22.49 -2.69 22.95 -2.72 23.4 -2.74 23.85 -3.2 24.31 -3.78 24.76 -3.92 25.22 -3.95 25.67 -4.09 26.13 -4.12 26.58 -4.14 27.03 -4.18 27.49 -4.14 27.94 -4.05 28.4 -4.16 28.85 -4.54 29.31 -4.72 29.76 -4.78 30.21 -5.07 30.67 -5.25 31.12 -5.1 31.58 -4.8 32.03 -4.82 32.49 -5.26 32.94 -5.42 33.4 -5.64 33.85 -6.36 34.3 -6.7 34.76 -6.88 35.21 -7.63 35.67 -8.05 36.12 -7.94 36.58 -7.9 37.03 -7.95 37.48 -7.94 37.94 -7.86 38.39 -7.93 38.85 -8.28 39.3 -8.54 39.76 -8.54 40.21 -8.54 40.67 -8.56 41.12 -8.57 41.57 -8.64 42.03 -8.77 42.48 -8.79 42.94 -8.86 43.39 -9.28 43.85 -9.61 44.3 -9.65 44.75 -9.83 45.21 -10.03 45.66 -9.99 46.12 -9.91 46.57 -9.95 47.03 -10.04 47.48 -10.07 47.94 -10.07 48.39 -10.14 48.84 -10.2 49.3 -10.15 49.75 -10.12 50.21 -10.11 50.66 -10.03 51.12 -10.1 51.57 -10.3 52.02 -10.36 52.48 -10.5 52.93 -10.9 53.39 -11.17 53.84 -11.15 54.3 -11.08 54.75 -11.09 55.2 -11.11 55.66 -11.14 56.11 -11.2 56.57 -11.25" class="primitive"/>
          </g>
          <g transform="translate(74.85,57.54)" id="img-d1c541c0-43" stroke="#FF6DAE" class="color_f3" stroke-dasharray="none">
            <path fill="none" d="M-56.57,3.81 L -56.11 3.51 -55.66 3.41 -55.2 3.47 -54.75 3.42 -54.3 3.37 -53.84 3.38 -53.39 3.4 -52.93 3.26 -52.48 3.34 -52.02 3.27 -51.57 3.25 -51.12 3.26 -50.66 3.27 -50.21 3.2 -49.75 3.22 -49.3 3.22 -48.84 3.2 -48.39 3.1 -47.94 3.15 -47.48 3.16 -47.03 3.16 -46.57 3.1 -46.12 3.14 -45.66 3.04 -45.21 3.03 -44.75 3.04 -44.3 3.01 -43.85 3.01 -43.39 3.03 -42.94 3 -42.48 2.95 -42.03 2.96 -41.57 2.97 -41.12 2.86 -40.67 2.79 -40.21 2.8 -39.76 2.78 -39.3 2.59 -38.85 2.62 -38.39 2.66 -37.94 2.58 -37.48 2.56 -37.03 2.54 -36.58 2.5 -36.12 2.51 -35.67 2.53 -35.21 2.4 -34.76 2.37 -34.3 2.34 -33.85 2.38 -33.4 2.36 -32.94 2.36 -32.49 2.36 -32.03 2.23 -31.58 2.26 -31.12 2.28 -30.67 2.17 -30.21 2.23 -29.76 2.23 -29.31 2.22 -28.85 2.09 -28.4 2.1 -27.94 2.09 -27.49 2.04 -27.03 2 -26.58 1.98 -26.13 1.96 -25.67 1.95 -25.22 1.93 -24.76 1.8 -24.31 1.75 -23.85 1.78 -23.4 1.77 -22.95 1.79 -22.49 1.76 -22.04 1.75 -21.58 1.6 -21.13 1.61 -20.67 1.61 -20.22 1.59 -19.76 1.53 -19.31 1.6 -18.86 1.54 -18.4 1.47 -17.95 1.29 -17.49 1.37 -17.04 1.36 -16.58 1.32 -16.13 1.34 -15.68 1.33 -15.22 1.32 -14.77 1.32 -14.31 1.35 -13.86 1.18 -13.4 1.16 -12.95 1.13 -12.49 1.16 -12.04 1.14 -11.59 1.11 -11.13 1.1 -10.68 1.05 -10.22 0.98 -9.77 0.96 -9.31 0.89 -8.86 0.88 -8.41 0.87 -7.95 0.86 -7.5 0.86 -7.04 0.82 -6.59 0.82 -6.13 0.78 -5.68 0.74 -5.23 0.57 -4.77 0.54 -4.32 0.55 -3.86 0.55 -3.41 0.51 -2.95 0.52 -2.5 0.52 -2.04 0.4 -1.59 0.39 -1.14 0.38 -0.68 0.38 -0.23 0.38 0.23 0.35 0.68 0.26 1.14 0.29 1.59 0.3 2.04 0.32 2.5 0.18 2.95 0.19 3.41 0.23 3.86 0.17 4.32 -0.06 4.77 0.12 5.23 -0.12 5.68 -0.22 6.13 -0.41 6.59 -0.38 7.04 -0.39 7.5 -0.41 7.95 -0.39 8.41 -0.44 8.86 -0.45 9.31 -0.41 9.77 -0.46 10.22 -0.5 10.68 -0.58 11.13 -0.53 11.59 -0.53 12.04 -0.54 12.49 -0.54 12.95 -0.58 13.4 -0.61 13.86 -0.58 14.31 -0.65 14.77 -0.69 15.22 -0.73 15.68 -0.94 16.13 -1.02 16.58 -1.16 17.04 -1.09 17.49 -1.12 17.95 -1.2 18.4 -1.24 18.86 -1.11 19.31 -1.38 19.76 -1.36 20.22 -1.34 20.67 -1.36 21.13 -1.44 21.58 -1.39 22.04 -1.46 22.49 -1.51 22.95 -1.56 23.4 -1.69 23.85 -1.77 24.31 -1.88 24.76 -1.86 25.22 -1.8 25.67 -1.95 26.13 -2.03 26.58 -1.96 27.03 -2 27.49 -2.02 27.94 -2.03 28.4 -2.01 28.85 -2.06 29.31 -2.13 29.76 -2.16 30.21 -2.18 30.67 -2.2 31.12 -2.22 31.58 -2.25 32.03 -2.24 32.49 -2.21 32.94 -2.37 33.4 -2.57 33.85 -2.54 34.3 -2.55 34.76 -2.55 35.21 -2.55 35.67 -2.66 36.12 -2.69 36.58 -2.69 37.03 -2.7 37.48 -2.7 37.94 -2.71 38.39 -2.71 38.85 -2.71 39.3 -2.72 39.76 -2.69 40.21 -2.78 40.67 -3.05 41.12 -2.96 41.57 -2.98 42.03 -3.07 42.48 -3.17 42.94 -3.1 43.39 -3.33 43.85 -3.43 44.3 -3.55 44.75 -3.55 45.21 -3.58 45.66 -3.63 46.12 -3.64 46.57 -3.62 47.03 -3.66 47.48 -3.63 47.94 -3.71 48.39 -4.01 48.84 -4.03 49.3 -4.04 49.75 -4.01 50.21 -4.07 50.66 -4.06 51.12 -4.09 51.57 -4.12 52.02 -4.16 52.48 -4.13 52.93 -4.13 53.39 -4.16 53.84 -4.18 54.3 -4.11 54.75 -4.33 55.2 -4.47 55.66 -4.39 56.11 -4.4 56.57 -4.37" class="primitive"/>
          </g>
          <g transform="translate(74.85,58.42)" id="img-d1c541c0-44" stroke="#00B78D" class="color_f4" stroke-dasharray="none">
            <path fill="none" d="M-56.57,1.82 L -56.11 1.63 -55.66 1.61 -55.2 1.62 -54.75 1.61 -54.3 1.59 -53.84 1.6 -53.39 1.61 -52.93 1.57 -52.48 1.54 -52.02 1.54 -51.57 1.55 -51.12 1.54 -50.66 1.53 -50.21 1.55 -49.75 1.53 -49.3 1.51 -48.84 1.54 -48.39 1.5 -47.94 1.5 -47.48 1.5 -47.03 1.48 -46.57 1.47 -46.12 1.47 -45.66 1.49 -45.21 1.47 -44.75 1.45 -44.3 1.45 -43.85 1.45 -43.39 1.44 -42.94 1.43 -42.48 1.43 -42.03 1.41 -41.57 1.37 -41.12 1.33 -40.67 1.31 -40.21 1.31 -39.76 1.32 -39.3 1.27 -38.85 1.29 -38.39 1.22 -37.94 1.26 -37.48 1.24 -37.03 1.23 -36.58 1.22 -36.12 1.21 -35.67 1.19 -35.21 1.19 -34.76 1.19 -34.3 1.14 -33.85 1.14 -33.4 1.13 -32.94 1.13 -32.49 1.12 -32.03 1.11 -31.58 1.12 -31.12 1.09 -30.67 1.07 -30.21 1.08 -29.76 1.07 -29.31 1.07 -28.85 1.04 -28.4 1.06 -27.94 1.04 -27.49 1.03 -27.03 1.01 -26.58 0.94 -26.13 0.95 -25.67 0.93 -25.22 0.94 -24.76 0.93 -24.31 0.87 -23.85 0.89 -23.4 0.88 -22.95 0.84 -22.49 0.83 -22.04 0.84 -21.58 0.8 -21.13 0.8 -20.67 0.79 -20.22 0.77 -19.76 0.79 -19.31 0.75 -18.86 0.75 -18.4 0.74 -17.95 0.74 -17.49 0.74 -17.04 0.73 -16.58 0.68 -16.13 0.69 -15.68 0.69 -15.22 0.67 -14.77 0.65 -14.31 0.65 -13.86 0.61 -13.4 0.6 -12.95 0.61 -12.49 0.53 -12.04 0.51 -11.59 0.46 -11.13 0.46 -10.68 0.48 -10.22 0.46 -9.77 0.45 -9.31 0.43 -8.86 0.42 -8.41 0.41 -7.95 0.41 -7.5 0.4 -7.04 0.37 -6.59 0.38 -6.13 0.36 -5.68 0.37 -5.23 0.34 -4.77 0.33 -4.32 0.32 -3.86 0.34 -3.41 0.28 -2.95 0.19 -2.5 0.2 -2.04 0.21 -1.59 0.2 -1.14 0.19 -0.68 0.19 -0.23 0.18 0.23 0.14 0.68 0.14 1.14 0.13 1.59 0.03 2.04 0.04 2.5 0.01 2.95 -0.02 3.41 -0.02 3.86 -0.01 4.32 -0.01 4.77 -0.05 5.23 -0.06 5.68 -0.08 6.13 -0.09 6.59 -0.1 7.04 -0.1 7.5 -0.12 7.95 -0.14 8.41 -0.18 8.86 -0.2 9.31 -0.17 9.77 -0.18 10.22 -0.2 10.68 -0.21 11.13 -0.21 11.59 -0.25 12.04 -0.21 12.49 -0.26 12.95 -0.27 13.4 -0.27 13.86 -0.29 14.31 -0.3 14.77 -0.33 15.22 -0.33 15.68 -0.33 16.13 -0.42 16.58 -0.39 17.04 -0.41 17.49 -0.54 17.95 -0.49 18.4 -0.53 18.86 -0.56 19.31 -0.6 19.76 -0.59 20.22 -0.59 20.67 -0.61 21.13 -0.62 21.58 -0.66 22.04 -0.66 22.49 -0.67 22.95 -0.64 23.4 -0.68 23.85 -0.71 24.31 -0.67 24.76 -0.75 25.22 -0.86 25.67 -0.85 26.13 -0.84 26.58 -0.89 27.03 -0.9 27.49 -0.89 27.94 -0.91 28.4 -0.92 28.85 -0.97 29.31 -1.03 29.76 -1.03 30.21 -1.01 30.67 -1.09 31.12 -1.09 31.58 -1.09 32.03 -1.15 32.49 -1.13 32.94 -1.14 33.4 -1.16 33.85 -1.16 34.3 -1.24 34.76 -1.23 35.21 -1.23 35.67 -1.23 36.12 -1.27 36.58 -1.27 37.03 -1.28 37.48 -1.31 37.94 -1.32 38.39 -1.33 38.85 -1.44 39.3 -1.41 39.76 -1.43 40.21 -1.54 40.67 -1.58 41.12 -1.6 41.57 -1.67 42.03 -1.66 42.48 -1.66 42.94 -1.67 43.39 -1.7 43.85 -1.7 44.3 -1.75 44.75 -1.76 45.21 -1.77 45.66 -1.76 46.12 -1.85 46.57 -1.84 47.03 -1.83 47.48 -1.84 47.94 -1.92 48.39 -1.9 48.84 -1.93 49.3 -1.9 49.75 -1.93 50.21 -1.93 50.66 -1.95 51.12 -1.97 51.57 -2 52.02 -1.98 52.48 -1.98 52.93 -2 53.39 -1.99 53.84 -2.04 54.3 -2.09 54.75 -2.12 55.2 -2.18 55.66 -2.2 56.11 -2.19 56.57 -2.22" class="primitive"/>
          </g>
          <g transform="translate(74.85,58.71)" id="img-d1c541c0-45" stroke="#BEA9FF" class="color_f5" stroke-dasharray="none">
            <path fill="none" d="M-56.57,1.07 L -56.11 0.96 -55.66 0.98 -55.2 0.96 -54.75 0.95 -54.3 0.94 -53.84 0.95 -53.39 0.93 -52.93 0.93 -52.48 0.93 -52.02 0.92 -51.57 0.92 -51.12 0.92 -50.66 0.91 -50.21 0.9 -49.75 0.91 -49.3 0.9 -48.84 0.9 -48.39 0.89 -47.94 0.89 -47.48 0.89 -47.03 0.88 -46.57 0.88 -46.12 0.88 -45.66 0.87 -45.21 0.87 -44.75 0.87 -44.3 0.86 -43.85 0.86 -43.39 0.86 -42.94 0.86 -42.48 0.84 -42.03 0.84 -41.57 0.81 -41.12 0.81 -40.67 0.79 -40.21 0.79 -39.76 0.79 -39.3 0.77 -38.85 0.76 -38.39 0.76 -37.94 0.75 -37.48 0.74 -37.03 0.74 -36.58 0.73 -36.12 0.72 -35.67 0.73 -35.21 0.72 -34.76 0.72 -34.3 0.71 -33.85 0.7 -33.4 0.69 -32.94 0.69 -32.49 0.68 -32.03 0.69 -31.58 0.67 -31.12 0.66 -30.67 0.67 -30.21 0.66 -29.76 0.66 -29.31 0.65 -28.85 0.66 -28.4 0.63 -27.94 0.63 -27.49 0.61 -27.03 0.6 -26.58 0.58 -26.13 0.58 -25.67 0.57 -25.22 0.57 -24.76 0.56 -24.31 0.56 -23.85 0.53 -23.4 0.53 -22.95 0.52 -22.49 0.52 -22.04 0.51 -21.58 0.5 -21.13 0.5 -20.67 0.5 -20.22 0.48 -19.76 0.48 -19.31 0.48 -18.86 0.47 -18.4 0.47 -17.95 0.45 -17.49 0.46 -17.04 0.44 -16.58 0.45 -16.13 0.42 -15.68 0.42 -15.22 0.42 -14.77 0.41 -14.31 0.41 -13.86 0.4 -13.4 0.37 -12.95 0.37 -12.49 0.36 -12.04 0.34 -11.59 0.33 -11.13 0.33 -10.68 0.3 -10.22 0.31 -9.77 0.29 -9.31 0.29 -8.86 0.29 -8.41 0.28 -7.95 0.28 -7.5 0.27 -7.04 0.26 -6.59 0.24 -6.13 0.23 -5.68 0.21 -5.23 0.21 -4.77 0.19 -4.32 0.19 -3.86 0.19 -3.41 0.19 -2.95 0.17 -2.5 0.16 -2.04 0.16 -1.59 0.16 -1.14 0.15 -0.68 0.14 -0.23 0.15 0.23 0.11 0.68 0.11 1.14 0.1 1.59 0.08 2.04 0.07 2.5 0.07 2.95 0.06 3.41 0.03 3.86 0.01 4.32 0.01 4.77 -0.01 5.23 -0.01 5.68 -0.02 6.13 -0.03 6.59 -0.04 7.04 -0.05 7.5 -0.05 7.95 -0.05 8.41 -0.07 8.86 -0.08 9.31 -0.08 9.77 -0.08 10.22 -0.09 10.68 -0.1 11.13 -0.1 11.59 -0.14 12.04 -0.13 12.49 -0.13 12.95 -0.14 13.4 -0.16 13.86 -0.16 14.31 -0.21 14.77 -0.21 15.22 -0.22 15.68 -0.23 16.13 -0.25 16.58 -0.26 17.04 -0.27 17.49 -0.29 17.95 -0.32 18.4 -0.32 18.86 -0.33 19.31 -0.34 19.76 -0.35 20.22 -0.36 20.67 -0.37 21.13 -0.38 21.58 -0.37 22.04 -0.39 22.49 -0.41 22.95 -0.41 23.4 -0.41 23.85 -0.42 24.31 -0.43 24.76 -0.43 25.22 -0.44 25.67 -0.46 26.13 -0.48 26.58 -0.49 27.03 -0.49 27.49 -0.49 27.94 -0.5 28.4 -0.52 28.85 -0.52 29.31 -0.53 29.76 -0.57 30.21 -0.58 30.67 -0.6 31.12 -0.62 31.58 -0.64 32.03 -0.67 32.49 -0.69 32.94 -0.7 33.4 -0.72 33.85 -0.73 34.3 -0.75 34.76 -0.75 35.21 -0.78 35.67 -0.79 36.12 -0.8 36.58 -0.78 37.03 -0.86 37.48 -0.86 37.94 -0.88 38.39 -0.89 38.85 -0.9 39.3 -0.91 39.76 -0.92 40.21 -0.93 40.67 -0.94 41.12 -0.96 41.57 -0.96 42.03 -0.96 42.48 -0.97 42.94 -1.02 43.39 -1.04 43.85 -1.05 44.3 -1.08 44.75 -1.09 45.21 -1.11 45.66 -1.11 46.12 -1.13 46.57 -1.14 47.03 -1.15 47.48 -1.17 47.94 -1.17 48.39 -1.18 48.84 -1.19 49.3 -1.2 49.75 -1.23 50.21 -1.24 50.66 -1.26 51.12 -1.25 51.57 -1.27 52.02 -1.29 52.48 -1.3 52.93 -1.3 53.39 -1.32 53.84 -1.34 54.3 -1.32 54.75 -1.34 55.2 -1.36 55.66 -1.38 56.11 -1.39 56.57 -1.44" class="primitive"/>
          </g>
          <g transform="translate(74.85,58.72)" id="img-d1c541c0-46" stroke="#FF6765" class="color_f6" stroke-dasharray="none">
            <path fill="none" d="M-56.57,0.86 L -56.11 0.81 -55.66 0.8 -55.2 0.79 -54.75 0.79 -54.3 0.79 -53.84 0.79 -53.39 0.79 -52.93 0.78 -52.48 0.77 -52.02 0.77 -51.57 0.77 -51.12 0.77 -50.66 0.77 -50.21 0.76 -49.75 0.76 -49.3 0.76 -48.84 0.75 -48.39 0.75 -47.94 0.75 -47.48 0.74 -47.03 0.74 -46.57 0.74 -46.12 0.73 -45.66 0.73 -45.21 0.73 -44.75 0.73 -44.3 0.73 -43.85 0.72 -43.39 0.72 -42.94 0.72 -42.48 0.72 -42.03 0.7 -41.57 0.7 -41.12 0.69 -40.67 0.68 -40.21 0.68 -39.76 0.67 -39.3 0.67 -38.85 0.67 -38.39 0.66 -37.94 0.65 -37.48 0.65 -37.03 0.64 -36.58 0.64 -36.12 0.63 -35.67 0.63 -35.21 0.63 -34.76 0.63 -34.3 0.62 -33.85 0.61 -33.4 0.61 -32.94 0.6 -32.49 0.6 -32.03 0.6 -31.58 0.59 -31.12 0.58 -30.67 0.59 -30.21 0.58 -29.76 0.58 -29.31 0.57 -28.85 0.57 -28.4 0.56 -27.94 0.56 -27.49 0.54 -27.03 0.54 -26.58 0.53 -26.13 0.53 -25.67 0.52 -25.22 0.51 -24.76 0.5 -24.31 0.5 -23.85 0.5 -23.4 0.49 -22.95 0.48 -22.49 0.48 -22.04 0.47 -21.58 0.46 -21.13 0.47 -20.67 0.46 -20.22 0.45 -19.76 0.45 -19.31 0.44 -18.86 0.44 -18.4 0.42 -17.95 0.42 -17.49 0.42 -17.04 0.41 -16.58 0.4 -16.13 0.4 -15.68 0.39 -15.22 0.39 -14.77 0.39 -14.31 0.38 -13.86 0.37 -13.4 0.37 -12.95 0.35 -12.49 0.35 -12.04 0.34 -11.59 0.33 -11.13 0.33 -10.68 0.32 -10.22 0.31 -9.77 0.3 -9.31 0.3 -8.86 0.29 -8.41 0.28 -7.95 0.27 -7.5 0.26 -7.04 0.25 -6.59 0.25 -6.13 0.25 -5.68 0.24 -5.23 0.23 -4.77 0.23 -4.32 0.22 -3.86 0.21 -3.41 0.19 -2.95 0.19 -2.5 0.19 -2.04 0.18 -1.59 0.18 -1.14 0.17 -0.68 0.16 -0.23 0.15 0.23 0.14 0.68 0.13 1.14 0.12 1.59 0.11 2.04 0.11 2.5 0.1 2.95 0.09 3.41 0.09 3.86 0.08 4.32 0.06 4.77 0.05 5.23 0.04 5.68 0.04 6.13 0.03 6.59 0.02 7.04 0.01 7.5 0.01 7.95 -0 8.41 -0.01 8.86 -0.01 9.31 -0.02 9.77 -0.04 10.22 -0.04 10.68 -0.06 11.13 -0.08 11.59 -0.09 12.04 -0.09 12.49 -0.1 12.95 -0.11 13.4 -0.11 13.86 -0.12 14.31 -0.13 14.77 -0.14 15.22 -0.14 15.68 -0.16 16.13 -0.17 16.58 -0.18 17.04 -0.19 17.49 -0.21 17.95 -0.24 18.4 -0.24 18.86 -0.25 19.31 -0.27 19.76 -0.27 20.22 -0.29 20.67 -0.29 21.13 -0.3 21.58 -0.31 22.04 -0.32 22.49 -0.33 22.95 -0.34 23.4 -0.34 23.85 -0.36 24.31 -0.36 24.76 -0.37 25.22 -0.38 25.67 -0.41 26.13 -0.42 26.58 -0.43 27.03 -0.45 27.49 -0.45 27.94 -0.46 28.4 -0.48 28.85 -0.5 29.31 -0.51 29.76 -0.53 30.21 -0.54 30.67 -0.55 31.12 -0.57 31.58 -0.57 32.03 -0.58 32.49 -0.59 32.94 -0.6 33.4 -0.62 33.85 -0.63 34.3 -0.64 34.76 -0.65 35.21 -0.66 35.67 -0.67 36.12 -0.68 36.58 -0.69 37.03 -0.71 37.48 -0.73 37.94 -0.74 38.39 -0.75 38.85 -0.76 39.3 -0.78 39.76 -0.8 40.21 -0.83 40.67 -0.85 41.12 -0.87 41.57 -0.88 42.03 -0.89 42.48 -0.9 42.94 -0.92 43.39 -0.92 43.85 -0.95 44.3 -0.98 44.75 -0.99 45.21 -1 45.66 -1.02 46.12 -1.02 46.57 -1.03 47.03 -1.05 47.48 -1.06 47.94 -1.07 48.39 -1.09 48.84 -1.1 49.3 -1.11 49.75 -1.13 50.21 -1.15 50.66 -1.17 51.12 -1.18 51.57 -1.19 52.02 -1.21 52.48 -1.22 52.93 -1.24 53.39 -1.26 53.84 -1.29 54.3 -1.3 54.75 -1.33 55.2 -1.35 55.66 -1.38 56.11 -1.41 56.57 -1.44" class="primitive"/>
          </g>
          <g transform="translate(74.85,58.39)" id="img-d1c541c0-47" stroke="#C6C6C6" class="color_f7" stroke-dasharray="none">
            <path fill="none" d="M-56.57,1.09 L -56.11 1.06 -55.66 1.06 -55.2 1.06 -54.75 1.05 -54.3 1.05 -53.84 1.05 -53.39 1.05 -52.93 1.04 -52.48 1.04 -52.02 1.04 -51.57 1.04 -51.12 1.03 -50.66 1.03 -50.21 1.03 -49.75 1.02 -49.3 1.02 -48.84 1.02 -48.39 1.02 -47.94 1.01 -47.48 1.01 -47.03 1.01 -46.57 1.01 -46.12 1 -45.66 1 -45.21 1 -44.75 0.99 -44.3 0.99 -43.85 0.99 -43.39 0.99 -42.94 0.98 -42.48 0.98 -42.03 0.97 -41.57 0.96 -41.12 0.96 -40.67 0.95 -40.21 0.95 -39.76 0.95 -39.3 0.94 -38.85 0.94 -38.39 0.93 -37.94 0.93 -37.48 0.92 -37.03 0.92 -36.58 0.91 -36.12 0.91 -35.67 0.91 -35.21 0.9 -34.76 0.89 -34.3 0.89 -33.85 0.89 -33.4 0.88 -32.94 0.88 -32.49 0.87 -32.03 0.87 -31.58 0.86 -31.12 0.86 -30.67 0.85 -30.21 0.85 -29.76 0.84 -29.31 0.84 -28.85 0.84 -28.4 0.83 -27.94 0.82 -27.49 0.81 -27.03 0.81 -26.58 0.8 -26.13 0.79 -25.67 0.79 -25.22 0.78 -24.76 0.77 -24.31 0.77 -23.85 0.76 -23.4 0.76 -22.95 0.75 -22.49 0.74 -22.04 0.74 -21.58 0.73 -21.13 0.72 -20.67 0.72 -20.22 0.71 -19.76 0.71 -19.31 0.7 -18.86 0.69 -18.4 0.69 -17.95 0.68 -17.49 0.67 -17.04 0.66 -16.58 0.66 -16.13 0.65 -15.68 0.64 -15.22 0.64 -14.77 0.63 -14.31 0.62 -13.86 0.61 -13.4 0.6 -12.95 0.59 -12.49 0.58 -12.04 0.58 -11.59 0.57 -11.13 0.56 -10.68 0.56 -10.22 0.54 -9.77 0.54 -9.31 0.53 -8.86 0.52 -8.41 0.51 -7.95 0.5 -7.5 0.49 -7.04 0.48 -6.59 0.47 -6.13 0.47 -5.68 0.45 -5.23 0.44 -4.77 0.44 -4.32 0.43 -3.86 0.42 -3.41 0.41 -2.95 0.4 -2.5 0.39 -2.04 0.38 -1.59 0.37 -1.14 0.36 -0.68 0.35 -0.23 0.34 0.23 0.33 0.68 0.32 1.14 0.3 1.59 0.29 2.04 0.29 2.5 0.27 2.95 0.26 3.41 0.24 3.86 0.24 4.32 0.22 4.77 0.21 5.23 0.2 5.68 0.19 6.13 0.17 6.59 0.16 7.04 0.15 7.5 0.14 7.95 0.13 8.41 0.11 8.86 0.1 9.31 0.09 9.77 0.08 10.22 0.07 10.68 0.05 11.13 0.04 11.59 0.03 12.04 0.01 12.49 -0.01 12.95 -0.02 13.4 -0.03 13.86 -0.04 14.31 -0.06 14.77 -0.07 15.22 -0.09 15.68 -0.11 16.13 -0.13 16.58 -0.14 17.04 -0.16 17.49 -0.17 17.95 -0.18 18.4 -0.21 18.86 -0.23 19.31 -0.24 19.76 -0.26 20.22 -0.28 20.67 -0.3 21.13 -0.31 21.58 -0.33 22.04 -0.34 22.49 -0.36 22.95 -0.38 23.4 -0.4 23.85 -0.42 24.31 -0.44 24.76 -0.46 25.22 -0.48 25.67 -0.5 26.13 -0.52 26.58 -0.54 27.03 -0.55 27.49 -0.57 27.94 -0.59 28.4 -0.62 28.85 -0.64 29.31 -0.66 29.76 -0.69 30.21 -0.72 30.67 -0.74 31.12 -0.76 31.58 -0.78 32.03 -0.8 32.49 -0.82 32.94 -0.84 33.4 -0.86 33.85 -0.89 34.3 -0.92 34.76 -0.93 35.21 -0.97 35.67 -1 36.12 -1.02 36.58 -1.05 37.03 -1.07 37.48 -1.1 37.94 -1.12 38.39 -1.14 38.85 -1.17 39.3 -1.19 39.76 -1.23 40.21 -1.25 40.67 -1.28 41.12 -1.3 41.57 -1.34 42.03 -1.38 42.48 -1.41 42.94 -1.44 43.39 -1.49 43.85 -1.52 44.3 -1.54 44.75 -1.57 45.21 -1.6 45.66 -1.63 46.12 -1.66 46.57 -1.7 47.03 -1.72 47.48 -1.75 47.94 -1.78 48.39 -1.82 48.84 -1.87 49.3 -1.91 49.75 -1.95 50.21 -1.98 50.66 -2.02 51.12 -2.08 51.57 -2.12 52.02 -2.15 52.48 -2.2 52.93 -2.24 53.39 -2.29 53.84 -2.33 54.3 -2.36 54.75 -2.39 55.2 -2.43 55.66 -2.47 56.11 -2.51 56.57 -2.54" class="primitive"/>
          </g>
          <g transform="translate(74.85,55.71)" id="img-d1c541c0-48" stroke="#63DF75" class="color_f8" stroke-dasharray="none">
            <path fill="none" d="M-56.57,3.73 L -56.11 3.71 -55.66 3.71 -55.2 3.7 -54.75 3.7 -54.3 3.7 -53.84 3.69 -53.39 3.69 -52.93 3.69 -52.48 3.69 -52.02 3.68 -51.57 3.68 -51.12 3.68 -50.66 3.68 -50.21 3.67 -49.75 3.67 -49.3 3.67 -48.84 3.66 -48.39 3.66 -47.94 3.66 -47.48 3.65 -47.03 3.65 -46.57 3.65 -46.12 3.64 -45.66 3.64 -45.21 3.63 -44.75 3.63 -44.3 3.63 -43.85 3.62 -43.39 3.62 -42.94 3.61 -42.48 3.61 -42.03 3.6 -41.57 3.6 -41.12 3.59 -40.67 3.58 -40.21 3.58 -39.76 3.57 -39.3 3.57 -38.85 3.56 -38.39 3.56 -37.94 3.55 -37.48 3.54 -37.03 3.54 -36.58 3.53 -36.12 3.53 -35.67 3.52 -35.21 3.51 -34.76 3.51 -34.3 3.5 -33.85 3.49 -33.4 3.49 -32.94 3.48 -32.49 3.47 -32.03 3.46 -31.58 3.46 -31.12 3.45 -30.67 3.44 -30.21 3.43 -29.76 3.43 -29.31 3.42 -28.85 3.41 -28.4 3.4 -27.94 3.39 -27.49 3.38 -27.03 3.37 -26.58 3.36 -26.13 3.35 -25.67 3.34 -25.22 3.33 -24.76 3.32 -24.31 3.31 -23.85 3.3 -23.4 3.29 -22.95 3.28 -22.49 3.27 -22.04 3.26 -21.58 3.25 -21.13 3.24 -20.67 3.22 -20.22 3.21 -19.76 3.2 -19.31 3.19 -18.86 3.17 -18.4 3.16 -17.95 3.15 -17.49 3.13 -17.04 3.12 -16.58 3.11 -16.13 3.09 -15.68 3.08 -15.22 3.06 -14.77 3.04 -14.31 3.03 -13.86 3.01 -13.4 2.99 -12.95 2.98 -12.49 2.96 -12.04 2.94 -11.59 2.92 -11.13 2.91 -10.68 2.89 -10.22 2.87 -9.77 2.85 -9.31 2.83 -8.86 2.81 -8.41 2.79 -7.95 2.77 -7.5 2.74 -7.04 2.72 -6.59 2.7 -6.13 2.68 -5.68 2.65 -5.23 2.63 -4.77 2.61 -4.32 2.58 -3.86 2.56 -3.41 2.53 -2.95 2.5 -2.5 2.48 -2.04 2.45 -1.59 2.42 -1.14 2.39 -0.68 2.36 -0.23 2.33 0.23 2.3 0.68 2.27 1.14 2.24 1.59 2.21 2.04 2.18 2.5 2.14 2.95 2.11 3.41 2.07 3.86 2.03 4.32 2 4.77 1.96 5.23 1.92 5.68 1.89 6.13 1.85 6.59 1.81 7.04 1.77 7.5 1.72 7.95 1.68 8.41 1.64 8.86 1.59 9.31 1.54 9.77 1.5 10.22 1.45 10.68 1.4 11.13 1.35 11.59 1.3 12.04 1.25 12.49 1.19 12.95 1.14 13.4 1.09 13.86 1.03 14.31 0.97 14.77 0.91 15.22 0.85 15.68 0.8 16.13 0.73 16.58 0.66 17.04 0.6 17.49 0.54 17.95 0.47 18.4 0.39 18.86 0.32 19.31 0.25 19.76 0.18 20.22 0.1 20.67 0.02 21.13 -0.06 21.58 -0.13 22.04 -0.21 22.49 -0.3 22.95 -0.39 23.4 -0.48 23.85 -0.57 24.31 -0.65 24.76 -0.75 25.22 -0.85 25.67 -0.95 26.13 -1.04 26.58 -1.14 27.03 -1.24 27.49 -1.36 27.94 -1.46 28.4 -1.57 28.85 -1.68 29.31 -1.79 29.76 -1.92 30.21 -2.04 30.67 -2.17 31.12 -2.29 31.58 -2.42 32.03 -2.54 32.49 -2.68 32.94 -2.81 33.4 -2.97 33.85 -3.11 34.3 -3.26 34.76 -3.4 35.21 -3.54 35.67 -3.69 36.12 -3.88 36.58 -4.04 37.03 -4.21 37.48 -4.38 37.94 -4.55 38.39 -4.72 38.85 -4.89 39.3 -5.08 39.76 -5.27 40.21 -5.48 40.67 -5.68 41.12 -5.89 41.57 -6.08 42.03 -6.29 42.48 -6.49 42.94 -6.7 43.39 -6.96 43.85 -7.18 44.3 -7.43 44.75 -7.66 45.21 -7.9 45.66 -8.15 46.12 -8.39 46.57 -8.66 47.03 -8.93 47.48 -9.19 47.94 -9.49 48.39 -9.77 48.84 -10.07 49.3 -10.38 49.75 -10.67 50.21 -10.96 50.66 -11.29 51.12 -11.59 51.57 -11.94 52.02 -12.3 52.48 -12.63 52.93 -13.03 53.39 -13.39 53.84 -13.73 54.3 -14.12 54.75 -14.49 55.2 -14.86 55.66 -15.26 56.11 -15.73 56.57 -16.13" class="primitive"/>
          </g>
        </g>
      </g>
    </g>
  </g>
  <g class="guide ylabels" font-size="2.82" font-family="'PT Sans Caption','Helvetica Neue','Helvetica',sans-serif" fill="#6C606B" id="img-d1c541c0-49">
    <g transform="translate(15.28,80.31)" id="img-d1c541c0-50">
      <g class="primitive">
        <text text-anchor="end" dy="0.35em">2</text>
      </g>
    </g>
    <g transform="translate(15.28,61.99)" id="img-d1c541c0-51">
      <g class="primitive">
        <text text-anchor="end" dy="0.35em">3</text>
      </g>
    </g>
    <g transform="translate(15.28,43.66)" id="img-d1c541c0-52">
      <g class="primitive">
        <text text-anchor="end" dy="0.35em">4</text>
      </g>
    </g>
    <g transform="translate(15.28,25.33)" id="img-d1c541c0-53">
      <g class="primitive">
        <text text-anchor="end" dy="0.35em">5</text>
      </g>
    </g>
    <g transform="translate(15.28,7)" id="img-d1c541c0-54">
      <g class="primitive">
        <text text-anchor="end" dy="0.35em">6</text>
      </g>
    </g>
  </g>
  <g font-size="3.88" font-family="'PT Sans','Helvetica Neue','Helvetica',sans-serif" fill="#564A55" stroke="#000000" stroke-opacity="0.000" id="img-d1c541c0-55">
    <g transform="translate(8.81,41.66)" id="img-d1c541c0-56">
      <g class="primitive">
        <text text-anchor="middle" dy="0.35em" transform="rotate(-90,0, 2)">Energy</text>
      </g>
    </g>
  </g>
</g>
<defs>
  <clipPath id="img-d1c541c0-25">
    <path d="M16.29,5 L 133.42 5 133.42 82.32 16.29 82.32" />
  </clipPath>
</defs>
</svg>
