<?xml version="1.0" encoding="UTF-8"?>
<svg xmlns="http://www.w3.org/2000/svg"
     xmlns:xlink="http://www.w3.org/1999/xlink"
     xmlns:gadfly="http://www.gadflyjl.org/ns"
     version="1.2"
     width="152.4mm" height="101.6mm" viewBox="0 0 152.4 101.6"
     stroke="none"
     fill="#000000"
     stroke-width="0.3"
     font-size="3.88"
>
<defs>
  <marker id="arrow" markerWidth="15" markerHeight="7" refX="5" refY="3.5" orient="auto" markerUnits="strokeWidth">
    <path d="M0,0 L15,3.5 L0,7 z" stroke="context-stroke" fill="context-stroke"/>
  </marker>
</defs>
<g class="plotroot xscalable yscalable" id="img-a6d7222e-1">
  <g font-size="3.88" font-family="'PT Sans','Helvetica Neue','Helvetica',sans-serif" fill="#564A55" stroke="#000000" stroke-opacity="0.000" id="img-a6d7222e-2">
    <g transform="translate(81.5,89.99)">
      <g class="primitive">
        <text text-anchor="middle" dy="0.6em">x</text>
      </g>
    </g>
  </g>
  <g class="guide xlabels" font-size="2.82" font-family="'PT Sans Caption','Helvetica Neue','Helvetica',sans-serif" fill="#6C606B" id="img-a6d7222e-3">
    <g transform="translate(17.59,83.32)">
      <g class="primitive">
        <text text-anchor="middle" dy="0.6em">0</text>
      </g>
    </g>
    <g transform="translate(49.54,83.32)">
      <g class="primitive">
        <text text-anchor="middle" dy="0.6em">2</text>
      </g>
    </g>
    <g transform="translate(81.5,83.32)">
      <g class="primitive">
        <text text-anchor="middle" dy="0.6em">4</text>
      </g>
    </g>
    <g transform="translate(113.45,83.32)">
      <g class="primitive">
        <text text-anchor="middle" dy="0.6em">6</text>
      </g>
    </g>
    <g transform="translate(145.4,83.32)">
      <g class="primitive">
        <text text-anchor="middle" dy="0.6em">8</text>
      </g>
    </g>
  </g>
  <g clip-path="url(#img-a6d7222e-4)">
    <g id="img-a6d7222e-5">
      <g pointer-events="visible" fill="#000000" fill-opacity="0.000" stroke="#000000" stroke-opacity="0.000" class="guide background" id="img-a6d7222e-6">
        <g transform="translate(81.5,43.66)" id="img-a6d7222e-7">
          <path d="M-65.9,-38.66 L 65.9 -38.66 65.9 38.66 -65.9 38.66 z" class="primitive"/>
        </g>
      </g>
      <g class="guide ygridlines xfixed" stroke-dasharray="0.5,0.5" stroke-width="0.2" stroke="#D0D0E0" id="img-a6d7222e-8">
        <g transform="translate(81.5,80.32)" id="img-a6d7222e-9">
          <path fill="none" d="M-65.9,0 L 65.9 0" class="primitive"/>
        </g>
        <g transform="translate(81.5,68.1)" id="img-a6d7222e-10">
          <path fill="none" d="M-65.9,0 L 65.9 0" class="primitive"/>
        </g>
        <g transform="translate(81.5,55.88)" id="img-a6d7222e-11">
          <path fill="none" d="M-65.9,0 L 65.9 0" class="primitive"/>
        </g>
        <g transform="translate(81.5,43.66)" id="img-a6d7222e-12">
          <path fill="none" d="M-65.9,0 L 65.9 0" class="primitive"/>
        </g>
        <g transform="translate(81.5,31.44)" id="img-a6d7222e-13">
          <path fill="none" d="M-65.9,0 L 65.9 0" class="primitive"/>
        </g>
        <g transform="translate(81.5,19.22)" id="img-a6d7222e-14">
          <path fill="none" d="M-65.9,0 L 65.9 0" class="primitive"/>
        </g>
        <g transform="translate(81.5,7)" id="img-a6d7222e-15">
          <path fill="none" d="M-65.9,0 L 65.9 0" class="primitive"/>
        </g>
      </g>
      <g class="guide xgridlines yfixed" stroke-dasharray="0.5,0.5" stroke-width="0.2" stroke="#D0D0E0" id="img-a6d7222e-16">
        <g transform="translate(17.59,43.66)" id="img-a6d7222e-17">
          <path fill="none" d="M0,-38.66 L 0 38.66" class="primitive"/>
        </g>
        <g transform="translate(49.54,43.66)" id="img-a6d7222e-18">
          <path fill="none" d="M0,-38.66 L 0 38.66" class="primitive"/>
        </g>
        <g transform="translate(81.5,43.66)" id="img-a6d7222e-19">
          <path fill="none" d="M0,-38.66 L 0 38.66" class="primitive"/>
        </g>
        <g transform="translate(113.45,43.66)" id="img-a6d7222e-20">
          <path fill="none" d="M0,-38.66 L 0 38.66" class="primitive"/>
        </g>
        <g transform="translate(145.4,43.66)" id="img-a6d7222e-21">
          <path fill="none" d="M0,-38.66 L 0 38.66" class="primitive"/>
        </g>
      </g>
      <g class="plotpanel" id="img-a6d7222e-22">
        <metadata>
          <boundingbox value="15.592500000000001mm 5.0mm 131.80749999999998mm 77.315mm"/>
          <unitbox value="-0.125188271423821 3.163677282957103 8.250376542847642 -6.327354565914206"/>
        </metadata>
        <g stroke-width="0.3" fill="#000000" fill-opacity="0.000" class="geometry" id="img-a6d7222e-23">
          <g class="color_LCHab{Float32}(70.0f0,60.0f0,240.0f0)" stroke-dasharray="none" stroke="#00BFFF" id="img-a6d7222e-24">
            <g transform="translate(67.78,39.2)" id="img-a6d7222e-25">
              <path fill="none" d="M-50.19,4.46 L -50.09 4.44 -49.99 4.43 -49.89 4.42 -49.79 4.41 -49.69 4.39 -49.59 4.38 -49.49 4.36 -49.39 4.35 -49.29 4.33 -49.19 4.31 -49.08 4.29 -48.98 4.28 -48.88 4.26 -48.78 4.25 -48.68 4.23 -48.58 4.22 -48.48 4.21 -48.38 4.19 -48.28 4.18 -48.18 4.17 -48.08 4.16 -47.98 4.16 -47.88 4.15 -47.78 4.15 -47.68 4.15 -47.58 4.15 -47.48 4.15 -47.38 4.15 -47.28 4.16 -47.18 4.16 -47.07 4.17 -46.97 4.18 -46.87 4.2 -46.77 4.21 -46.67 4.22 -46.57 4.24 -46.47 4.25 -46.37 4.27 -46.27 4.29 -46.17 4.31 -46.07 4.33 -45.97 4.35 -45.87 4.37 -45.77 4.39 -45.67 4.41 -45.57 4.44 -45.47 4.46 -45.37 4.48 -45.27 4.5 -45.17 4.52 -45.07 4.55 -44.96 4.57 -44.86 4.59 -44.76 4.61 -44.66 4.62 -44.56 4.64 -44.46 4.65 -44.36 4.67 -44.26 4.68 -44.16 4.69 -44.06 4.7 -43.96 4.7 -43.86 4.71 -43.76 4.72 -43.66 4.72 -43.56 4.73 -43.46 4.73 -43.36 4.74 -43.26 4.74 -43.16 4.74 -43.06 4.74 -42.96 4.74 -42.85 4.74 -42.75 4.74 -42.65 4.74 -42.55 4.74 -42.45 4.74 -42.35 4.73 -42.25 4.73 -42.15 4.72 -42.05 4.72 -41.95 4.71 -41.85 4.71 -41.75 4.7 -41.65 4.69 -41.55 4.68 -41.45 4.66 -41.35 4.65 -41.25 4.63 -41.15 4.62 -41.05 4.6 -40.95 4.59 -40.85 4.57 -40.74 4.55 -40.64 4.54 -40.54 4.52 -40.44 4.5 -40.34 4.49 -40.24 4.47 -40.14 4.45 -40.04 4.44 -39.94 4.42 -39.84 4.41 -39.74 4.39 -39.64 4.38 -39.54 4.36 -39.44 4.35 -39.34 4.34 -39.24 4.32 -39.14 4.31 -39.04 4.3 -38.94 4.28 -38.84 4.27 -38.74 4.26 -38.63 4.25 -38.53 4.24 -38.43 4.23 -38.33 4.22 -38.23 4.21 -38.13 4.2 -38.03 4.2 -37.93 4.19 -37.83 4.19 -37.73 4.18 -37.63 4.18 -37.53 4.17 -37.43 4.17 -37.33 4.17 -37.23 4.17 -37.13 4.17 -37.03 4.17 -36.93 4.17 -36.83 4.18 -36.73 4.18 -36.63 4.18 -36.52 4.19 -36.42 4.19 -36.32 4.2 -36.22 4.2 -36.12 4.21 -36.02 4.21 -35.92 4.22 -35.82 4.22 -35.72 4.23 -35.62 4.23 -35.52 4.24 -35.42 4.24 -35.32 4.25 -35.22 4.25 -35.12 4.26 -35.02 4.26 -34.92 4.27 -34.82 4.27 -34.72 4.28 -34.62 4.28 -34.51 4.28 -34.41 4.29 -34.31 4.29 -34.21 4.3 -34.11 4.3 -34.01 4.31 -33.91 4.31 -33.81 4.32 -33.71 4.33 -33.61 4.34 -33.51 4.34 -33.41 4.35 -33.31 4.37 -33.21 4.38 -33.11 4.39 -33.01 4.41 -32.91 4.42 -32.81 4.44 -32.71 4.46 -32.61 4.47 -32.51 4.49 -32.4 4.51 -32.3 4.54 -32.2 4.56 -32.1 4.58 -32 4.61 -31.9 4.64 -31.8 4.66 -31.7 4.69 -31.6 4.72 -31.5 4.74 -31.4 4.77 -31.3 4.79 -31.2 4.82 -31.1 4.85 -31 4.87 -30.9 4.9 -30.8 4.92 -30.7 4.94 -30.6 4.97 -30.5 4.99 -30.4 5 -30.29 5.02 -30.19 5.04 -30.09 5.05 -29.99 5.06 -29.89 5.07 -29.79 5.08 -29.69 5.09 -29.59 5.1 -29.49 5.11 -29.39 5.12 -29.29 5.13 -29.19 5.14 -29.09 5.15 -28.99 5.16 -28.89 5.17 -28.79 5.18 -28.69 5.19 -28.59 5.19 -28.49 5.2 -28.39 5.2 -28.29 5.21 -28.18 5.21 -28.08 5.21 -27.98 5.21 -27.88 5.21 -27.78 5.21 -27.68 5.21 -27.58 5.2 -27.48 5.19 -27.38 5.18 -27.28 5.17 -27.18 5.16 -27.08 5.14 -26.98 5.12 -26.88 5.1 -26.78 5.07 -26.68 5.05 -26.58 5.02 -26.48 4.99 -26.38 4.97 -26.28 4.94 -26.18 4.9 -26.07 4.87 -25.97 4.84 -25.87 4.8 -25.77 4.77 -25.67 4.73 -25.57 4.69 -25.47 4.66 -25.37 4.62 -25.27 4.58 -25.17 4.55 -25.07 4.51 -24.97 4.47 -24.87 4.44 -24.77 4.4 -24.67 4.37 -24.57 4.33 -24.47 4.29 -24.37 4.26 -24.27 4.22 -24.17 4.19 -24.07 4.15 -23.96 4.12 -23.86 4.08 -23.76 4.04 -23.66 4.01 -23.56 3.97 -23.46 3.93 -23.36 3.89 -23.26 3.85 -23.16 3.81 -23.06 3.77 -22.96 3.73 -22.86 3.69 -22.76 3.64 -22.66 3.6 -22.56 3.55 -22.46 3.5 -22.36 3.45 -22.26 3.4 -22.16 3.35 -22.06 3.29 -21.95 3.24 -21.85 3.18 -21.75 3.12 -21.65 3.06 -21.55 3 -21.45 2.94 -21.35 2.88 -21.25 2.81 -21.15 2.75 -21.05 2.68 -20.95 2.61 -20.85 2.54 -20.75 2.47 -20.65 2.4 -20.55 2.33 -20.45 2.26 -20.35 2.19 -20.25 2.12 -20.15 2.05 -20.05 1.98 -19.95 1.91 -19.84 1.84 -19.74 1.77 -19.64 1.7 -19.54 1.63 -19.44 1.56 -19.34 1.49 -19.24 1.43 -19.14 1.36 -19.04 1.29 -18.94 1.22 -18.84 1.15 -18.74 1.08 -18.64 1.01 -18.54 0.95 -18.44 0.88 -18.34 0.82 -18.24 0.75 -18.14 0.69 -18.04 0.62 -17.94 0.56 -17.84 0.5 -17.73 0.44 -17.63 0.38 -17.53 0.32 -17.43 0.25 -17.33 0.19 -17.23 0.13 -17.13 0.07 -17.03 0.01 -16.93 -0.05 -16.83 -0.11 -16.73 -0.17 -16.63 -0.24 -16.53 -0.3 -16.43 -0.36 -16.33 -0.43 -16.23 -0.49 -16.13 -0.56 -16.03 -0.63 -15.93 -0.7 -15.83 -0.77 -15.73 -0.84 -15.62 -0.91 -15.52 -0.98 -15.42 -1.06 -15.32 -1.13 -15.22 -1.2 -15.12 -1.27 -15.02 -1.34 -14.92 -1.41 -14.82 -1.48 -14.72 -1.55 -14.62 -1.62 -14.52 -1.69 -14.42 -1.75 -14.32 -1.82 -14.22 -1.89 -14.12 -1.95 -14.02 -2.02 -13.92 -2.08 -13.82 -2.14 -13.72 -2.2 -13.62 -2.26 -13.51 -2.32 -13.41 -2.38 -13.31 -2.44 -13.21 -2.51 -13.11 -2.57 -13.01 -2.63 -12.91 -2.69 -12.81 -2.76 -12.71 -2.82 -12.61 -2.88 -12.51 -2.94 -12.41 -3.01 -12.31 -3.07 -12.21 -3.13 -12.11 -3.2 -12.01 -3.26 -11.91 -3.32 -11.81 -3.38 -11.71 -3.44 -11.61 -3.5 -11.5 -3.56 -11.4 -3.62 -11.3 -3.68 -11.2 -3.74 -11.1 -3.79 -11 -3.85 -10.9 -3.9 -10.8 -3.95 -10.7 -4 -10.6 -4.05 -10.5 -4.1 -10.4 -4.15 -10.3 -4.2 -10.2 -4.25 -10.1 -4.3 -10 -4.35 -9.9 -4.4 -9.8 -4.45 -9.7 -4.5 -9.6 -4.55 -9.5 -4.6 -9.39 -4.65 -9.29 -4.7 -9.19 -4.75 -9.09 -4.8 -8.99 -4.85 -8.89 -4.9 -8.79 -4.95 -8.69 -5 -8.59 -5.06 -8.49 -5.11 -8.39 -5.16 -8.29 -5.2 -8.19 -5.25 -8.09 -5.3 -7.99 -5.35 -7.89 -5.39 -7.79 -5.44 -7.69 -5.48 -7.59 -5.53 -7.49 -5.57 -7.39 -5.62 -7.28 -5.66 -7.18 -5.71 -7.08 -5.75 -6.98 -5.79 -6.88 -5.84 -6.78 -5.88 -6.68 -5.92 -6.58 -5.97 -6.48 -6.01 -6.38 -6.05 -6.28 -6.1 -6.18 -6.14 -6.08 -6.18 -5.98 -6.22 -5.88 -6.26 -5.78 -6.3 -5.68 -6.35 -5.58 -6.39 -5.48 -6.42 -5.38 -6.46 -5.28 -6.5 -5.17 -6.53 -5.07 -6.57 -4.97 -6.6 -4.87 -6.63 -4.77 -6.66 -4.67 -6.69 -4.57 -6.71 -4.47 -6.74 -4.37 -6.76 -4.27 -6.79 -4.17 -6.81 -4.07 -6.84 -3.97 -6.86 -3.87 -6.88 -3.77 -6.9 -3.67 -6.93 -3.57 -6.95 -3.47 -6.97 -3.37 -6.99 -3.27 -7.01 -3.17 -7.04 -3.06 -7.06 -2.96 -7.08 -2.86 -7.11 -2.76 -7.13 -2.66 -7.16 -2.56 -7.19 -2.46 -7.22 -2.36 -7.24 -2.26 -7.27 -2.16 -7.29 -2.06 -7.32 -1.96 -7.35 -1.86 -7.37 -1.76 -7.4 -1.66 -7.42 -1.56 -7.44 -1.46 -7.47 -1.36 -7.49 -1.26 -7.51 -1.16 -7.53 -1.06 -7.55 -0.95 -7.57 -0.85 -7.58 -0.75 -7.6 -0.65 -7.62 -0.55 -7.63 -0.45 -7.64 -0.35 -7.66 -0.25 -7.67 -0.15 -7.68 -0.05 -7.69 0.05 -7.7 0.15 -7.71 0.25 -7.72 0.35 -7.73 0.45 -7.74 0.55 -7.75 0.65 -7.76 0.75 -7.76 0.85 -7.77 0.95 -7.77 1.06 -7.78 1.16 -7.78 1.26 -7.78 1.36 -7.78 1.46 -7.78 1.56 -7.78 1.66 -7.78 1.76 -7.77 1.86 -7.77 1.96 -7.77 2.06 -7.76 2.16 -7.76 2.26 -7.76 2.36 -7.75 2.46 -7.75 2.56 -7.74 2.66 -7.73 2.76 -7.73 2.86 -7.72 2.96 -7.72 3.06 -7.72 3.17 -7.72 3.27 -7.71 3.37 -7.71 3.47 -7.71 3.57 -7.71 3.67 -7.71 3.77 -7.71 3.87 -7.71 3.97 -7.71 4.07 -7.71 4.17 -7.7 4.27 -7.7 4.37 -7.7 4.47 -7.69 4.57 -7.69 4.67 -7.68 4.77 -7.68 4.87 -7.67 4.97 -7.66 5.07 -7.65 5.17 -7.63 5.28 -7.62 5.38 -7.6 5.48 -7.59 5.58 -7.57 5.68 -7.55 5.78 -7.53 5.88 -7.51 5.98 -7.48 6.08 -7.46 6.18 -7.44 6.28 -7.42 6.38 -7.4 6.48 -7.37 6.58 -7.35 6.68 -7.33 6.78 -7.3 6.88 -7.28 6.98 -7.26 7.08 -7.23 7.18 -7.21 7.28 -7.18 7.39 -7.16 7.49 -7.13 7.59 -7.11 7.69 -7.08 7.79 -7.06 7.89 -7.03 7.99 -7 8.09 -6.98 8.19 -6.95 8.29 -6.92 8.39 -6.89 8.49 -6.86 8.59 -6.82 8.69 -6.79 8.79 -6.76 8.89 -6.73 8.99 -6.7 9.09 -6.66 9.19 -6.63 9.29 -6.6 9.39 -6.57 9.5 -6.54 9.6 -6.5 9.7 -6.47 9.8 -6.44 9.9 -6.41 10 -6.38 10.1 -6.34 10.2 -6.31 10.3 -6.28 10.4 -6.25 10.5 -6.21 10.6 -6.18 10.7 -6.15 10.8 -6.11 10.9 -6.08 11 -6.04 11.1 -6.01 11.2 -5.97 11.3 -5.93 11.4 -5.88 11.5 -5.84 11.61 -5.8 11.71 -5.75 11.81 -5.71 11.91 -5.66 12.01 -5.62 12.11 -5.57 12.21 -5.52 12.31 -5.48 12.41 -5.43 12.51 -5.38 12.61 -5.33 12.71 -5.29 12.81 -5.24 12.91 -5.19 13.01 -5.14 13.11 -5.1 13.21 -5.05 13.31 -5 13.41 -4.96 13.51 -4.91 13.62 -4.86 13.72 -4.82 13.82 -4.77 13.92 -4.72 14.02 -4.67 14.12 -4.62 14.22 -4.57 14.32 -4.52 14.42 -4.47 14.52 -4.41 14.62 -4.36 14.72 -4.3 14.82 -4.24 14.92 -4.19 15.02 -4.13 15.12 -4.07 15.22 -4.01 15.32 -3.96 15.42 -3.9 15.52 -3.84 15.62 -3.78 15.73 -3.72 15.83 -3.66 15.93 -3.6 16.03 -3.54 16.13 -3.49 16.23 -3.43 16.33 -3.38 16.43 -3.32 16.53 -3.27 16.63 -3.22 16.73 -3.17 16.83 -3.12 16.93 -3.07 17.03 -3.01 17.13 -2.96 17.23 -2.91 17.33 -2.86 17.43 -2.81 17.53 -2.76 17.63 -2.71 17.73 -2.66 17.84 -2.61 17.94 -2.55 18.04 -2.5 18.14 -2.45 18.24 -2.39 18.34 -2.33 18.44 -2.28 18.54 -2.22 18.64 -2.16 18.74 -2.1 18.84 -2.04 18.94 -1.98 19.04 -1.92 19.14 -1.86 19.24 -1.8 19.34 -1.74 19.44 -1.68 19.54 -1.61 19.64 -1.55 19.74 -1.49 19.84 -1.43 19.95 -1.36 20.05 -1.3 20.15 -1.24 20.25 -1.17 20.35 -1.11 20.45 -1.05 20.55 -0.98 20.65 -0.92 20.75 -0.85 20.85 -0.79 20.95 -0.73 21.05 -0.67 21.15 -0.6 21.25 -0.54 21.35 -0.48 21.45 -0.43 21.55 -0.37 21.65 -0.31 21.75 -0.26 21.85 -0.2 21.95 -0.15 22.06 -0.1 22.16 -0.05 22.26 0 22.36 0.05 22.46 0.09 22.56 0.14 22.66 0.18 22.76 0.22 22.86 0.27 22.96 0.31 23.06 0.34 23.16 0.38 23.26 0.42 23.36 0.46 23.46 0.5 23.56 0.53 23.66 0.57 23.76 0.6 23.86 0.63 23.96 0.67 24.07 0.7 24.17 0.74 24.27 0.77 24.37 0.81 24.47 0.84 24.57 0.88 24.67 0.91 24.77 0.95 24.87 0.98 24.97 1.02 25.07 1.06 25.17 1.09 25.27 1.13 25.37 1.16 25.47 1.2 25.57 1.24 25.67 1.28 25.77 1.31 25.87 1.35 25.97 1.39 26.07 1.42 26.18 1.46 26.28 1.49 26.38 1.52 26.48 1.55 26.58 1.58 26.68 1.61 26.78 1.64 26.88 1.66 26.98 1.69 27.08 1.71 27.18 1.73 27.28 1.75 27.38 1.76 27.48 1.78 27.58 1.79 27.68 1.8 27.78 1.81 27.88 1.81 27.98 1.81 28.08 1.82 28.18 1.82 28.29 1.82 28.39 1.82 28.49 1.82 28.59 1.82 28.69 1.82 28.79 1.81 28.89 1.81 28.99 1.81 29.09 1.8 29.19 1.8 29.29 1.79 29.39 1.79 29.49 1.79 29.59 1.78 29.69 1.78 29.79 1.78 29.89 1.77 29.99 1.77 30.09 1.76 30.19 1.75 30.29 1.75 30.4 1.74 30.5 1.72 30.6 1.71 30.7 1.7 30.8 1.68 30.9 1.67 31 1.65 31.1 1.63 31.2 1.61 31.3 1.59 31.4 1.58 31.5 1.56 31.6 1.54 31.7 1.52 31.8 1.51 31.9 1.49 32 1.47 32.1 1.46 32.2 1.44 32.3 1.43 32.4 1.41 32.51 1.4 32.61 1.39 32.71 1.38 32.81 1.38 32.91 1.37 33.01 1.36 33.11 1.36 33.21 1.36 33.31 1.36 33.41 1.36 33.51 1.36 33.61 1.36 33.71 1.36 33.81 1.36 33.91 1.37 34.01 1.38 34.11 1.38 34.21 1.39 34.31 1.4 34.41 1.4 34.51 1.41 34.62 1.42 34.72 1.43 34.82 1.43 34.92 1.44 35.02 1.45 35.12 1.46 35.22 1.47 35.32 1.48 35.42 1.48 35.52 1.49 35.62 1.5 35.72 1.51 35.82 1.52 35.92 1.52 36.02 1.53 36.12 1.54 36.22 1.55 36.32 1.56 36.42 1.57 36.52 1.58 36.63 1.59 36.73 1.6 36.83 1.61 36.93 1.62 37.03 1.63 37.13 1.65 37.23 1.66 37.33 1.68 37.43 1.69 37.53 1.71 37.63 1.73 37.73 1.75 37.83 1.77 37.93 1.79 38.03 1.81 38.13 1.83 38.23 1.86 38.33 1.88 38.43 1.91 38.53 1.93 38.63 1.96 38.74 1.99 38.84 2.01 38.94 2.04 39.04 2.07 39.14 2.1 39.24 2.13 39.34 2.16 39.44 2.19 39.54 2.23 39.64 2.26 39.74 2.29 39.84 2.32 39.94 2.35 40.04 2.39 40.14 2.42 40.24 2.45 40.34 2.49 40.44 2.52 40.54 2.55 40.64 2.59 40.74 2.62 40.85 2.66 40.95 2.69 41.05 2.73 41.15 2.76 41.25 2.8 41.35 2.83 41.45 2.86 41.55 2.89 41.65 2.92 41.75 2.95 41.85 2.98 41.95 3.01 42.05 3.03 42.15 3.06 42.25 3.08 42.35 3.1 42.45 3.13 42.55 3.15 42.65 3.17 42.75 3.19 42.85 3.21 42.96 3.23 43.06 3.25 43.16 3.27 43.26 3.28 43.36 3.3 43.46 3.32 43.56 3.33 43.66 3.35 43.76 3.36 43.86 3.37 43.96 3.39 44.06 3.4 44.16 3.41 44.26 3.42 44.36 3.43 44.46 3.44 44.56 3.44 44.66 3.45 44.76 3.45 44.86 3.45 44.96 3.46 45.07 3.45 45.17 3.45 45.27 3.45 45.37 3.45 45.47 3.45 45.57 3.45 45.67 3.45 45.77 3.45 45.87 3.45 45.97 3.45 46.07 3.45 46.17 3.45 46.27 3.45 46.37 3.45 46.47 3.45 46.57 3.46 46.67 3.46 46.77 3.47 46.87 3.48 46.97 3.49 47.07 3.5 47.18 3.51 47.28 3.53 47.38 3.54 47.48 3.56 47.58 3.58 47.68 3.6 47.78 3.62 47.88 3.65 47.98 3.68 48.08 3.71 48.18 3.74 48.28 3.77 48.38 3.8 48.48 3.84 48.58 3.87 48.68 3.9 48.78 3.94 48.88 3.98 48.98 4.01 49.08 4.05 49.19 4.09 49.29 4.13 49.39 4.17 49.49 4.21 49.59 4.24 49.69 4.28 49.79 4.32 49.89 4.35 49.99 4.39 50.09 4.42 50.19 4.45" class="primitive"/>
            </g>
          </g>
        </g>
      </g>
    </g>
  </g>
  <g class="guide ylabels" font-size="2.82" font-family="'PT Sans Caption','Helvetica Neue','Helvetica',sans-serif" fill="#6C606B" id="img-a6d7222e-26">
    <g transform="translate(14.59,80.32)" id="img-a6d7222e-27">
      <g class="primitive">
        <text text-anchor="end" dy="0.35em">-3</text>
      </g>
    </g>
    <g transform="translate(14.59,68.1)" id="img-a6d7222e-28">
      <g class="primitive">
        <text text-anchor="end" dy="0.35em">-2</text>
      </g>
    </g>
    <g transform="translate(14.59,55.88)" id="img-a6d7222e-29">
      <g class="primitive">
        <text text-anchor="end" dy="0.35em">-1</text>
      </g>
    </g>
    <g transform="translate(14.59,43.66)" id="img-a6d7222e-30">
      <g class="primitive">
        <text text-anchor="end" dy="0.35em">0</text>
      </g>
    </g>
    <g transform="translate(14.59,31.44)" id="img-a6d7222e-31">
      <g class="primitive">
        <text text-anchor="end" dy="0.35em">1</text>
      </g>
    </g>
    <g transform="translate(14.59,19.22)" id="img-a6d7222e-32">
      <g class="primitive">
        <text text-anchor="end" dy="0.35em">2</text>
      </g>
    </g>
    <g transform="translate(14.59,7)" id="img-a6d7222e-33">
      <g class="primitive">
        <text text-anchor="end" dy="0.35em">3</text>
      </g>
    </g>
  </g>
  <g font-size="3.88" font-family="'PT Sans','Helvetica Neue','Helvetica',sans-serif" fill="#564A55" stroke="#000000" stroke-opacity="0.000" id="img-a6d7222e-34">
    <g transform="translate(8.81,43.66)" id="img-a6d7222e-35">
      <g class="primitive">
        <text text-anchor="end" dy="0.35em">y</text>
      </g>
    </g>
  </g>
</g>
<defs>
  <clipPath id="img-a6d7222e-4">
    <path d="M15.59,5 L 147.4 5 147.4 82.32 15.59 82.32" />
  </clipPath>
</defs>
</svg>
